<!--?xml version="1.0" standalone="no"?-->
              <svg id="sw-js-blob-svg" viewBox="0 0 100 100" xmlns="http://www.w3.org/2000/svg" version="1.1">
                    <defs> 
                        <linearGradient id="sw-gradient" x1="0" x2="1" y1="1" y2="0">
                            <stop id="stop1" stop-color="rgba(243, 198, 119, 1)" offset="0%"></stop>
                            <stop id="stop2" stop-color="rgba(243, 198, 119, 1)" offset="100%"></stop>
                        </linearGradient>
                    </defs>
                <path fill="url(#sw-gradient)" d="M12.3,-19C17.4,-18.5,23.9,-18,29.3,-14.8C34.8,-11.7,39.2,-5.8,37.3,-1.1C35.4,3.6,27.1,7.3,22,11C16.9,14.7,14.8,18.5,11.7,23.1C8.6,27.7,4.3,33.1,-1.6,35.8C-7.4,38.5,-14.8,38.5,-18.4,34.2C-22,29.8,-21.9,21.2,-22.5,14.8C-23.1,8.4,-24.4,4.2,-24,0.3C-23.5,-3.7,-21.2,-7.3,-20.7,-13.8C-20.1,-20.3,-21.3,-29.6,-18.1,-31.2C-15,-32.9,-7.5,-26.8,-1.9,-23.5C3.6,-20.2,7.3,-19.6,12.3,-19Z" width="100%" height="100%" transform="translate(50 50)" style="transition: all 0.3s ease 0s;" stroke-width="0" stroke="url(#sw-gradient)"></path>
              </svg>