<!--?xml version="1.0" standalone="no"?-->
              <svg id="sw-js-blob-svg" viewBox="0 0 100 100" xmlns="http://www.w3.org/2000/svg" version="1.1">
                    <defs> 
                        <linearGradient id="sw-gradient" x1="0" x2="1" y1="1" y2="0">
                            <stop id="stop1" stop-color="rgba(242, 159, 5, 1)" offset="0%"></stop>
                            <stop id="stop2" stop-color="rgba(251, 168, 31, 1)" offset="100%"></stop>
                        </linearGradient>
                    </defs>
                <path fill="url(#sw-gradient)" d="M21.1,-39.3C25.8,-33.8,26.9,-25,29.8,-17.9C32.6,-10.8,37.1,-5.4,35.4,-1C33.6,3.4,25.6,6.8,22.6,13.6C19.6,20.4,21.6,30.7,18.7,32.1C15.8,33.6,7.9,26.2,2,22.8C-3.9,19.3,-7.8,19.8,-14.2,20.4C-20.5,20.9,-29.2,21.4,-34.3,18C-39.4,14.6,-40.9,7.3,-37.9,1.8C-34.8,-3.8,-27.2,-7.5,-21.8,-10.5C-16.5,-13.6,-13.5,-15.9,-10.3,-22.2C-7,-28.6,-3.5,-38.9,2.3,-43C8.2,-47.1,16.4,-44.8,21.1,-39.3Z" width="100%" height="100%" transform="translate(50 50)" style="transition: all 0.3s ease 0s;" stroke-width="0"></path>
              </svg>